<svg xmlns="http://www.w3.org/2000/svg" width="822" height="1040" viewBox="0 0 822 1040" font-family="Segoe UI, Arial, Helvetica, sans-serif" font-size="13">
<defs><marker id="ar" viewBox="0 0 10 10" refX="9.5" refY="5" markerWidth="9" markerHeight="9" orient="auto-start-reverse"><path d="M0,0 L10,5 L0,10 z" fill="#333"/></marker></defs>
<rect width="100%" height="100%" fill="white"/>
<rect x="8.0" y="8.0" width="806" height="1024" fill="none" stroke="#555" stroke-width="1.2"/>
<path d="M8.0,8.0 h290.40000000000003 v20 l-10,10 H8.0 z" fill="#f6f6f6" stroke="#555" stroke-width="1.2"/>
<text x="18.0" y="28.0" font-weight="600" font-size="14">act Élaboration de l&#x27;emploi du temps</text>
<rect x="16" y="46" width="330" height="34" fill="#D5E9ED" stroke="#555"/>
<rect x="16" y="80" width="330" height="944" fill="none" stroke="#555"/>
<text x="181.0" y="68.0" text-anchor="middle" font-weight="600" font-size="14">Administration</text>
<rect x="346" y="46" width="460" height="34" fill="#D5E9ED" stroke="#555"/>
<rect x="346" y="80" width="460" height="944" fill="none" stroke="#555"/>
<text x="576.0" y="68.0" text-anchor="middle" font-weight="600" font-size="14">Système</text>
<path d="M181.0,138.0 L181.0,181.0" fill="none" stroke="#333" stroke-width="1.3" marker-end="url(#ar)"/>
<path d="M181.0,229.0 L181.0,268.0" fill="none" stroke="#333" stroke-width="1.3" marker-end="url(#ar)"/>
<path d="M181.0,298.0 L181.0,337.0" fill="none" stroke="#333" stroke-width="1.3" marker-end="url(#ar)"/>
<path d="M181.0,385.0 L181.0,399.0 L484.0,399.0 L484.0,415.0" fill="none" stroke="#333" stroke-width="1.3" marker-end="url(#ar)"/>
<path d="M484.0,463.0 L484.0,493.0" fill="none" stroke="#333" stroke-width="1.3" marker-end="url(#ar)"/>
<path d="M484.0,541.0 L484.0,580.0" fill="none" stroke="#333" stroke-width="1.3" marker-end="url(#ar)"/>
<path d="M499.0,595.0 L619.0,595.0" fill="none" stroke="#333" stroke-width="1.3" marker-end="url(#ar)"/>
<text x="507.0" y="589.0" text-anchor="start" font-size="12" font-style="italic" fill="#222" stroke="white" stroke-width="4" paint-order="stroke" stroke-linejoin="round">[conflit]</text>
<path d="M772.2,595.0 L792.2,595.0 L792.2,283.0 L196.0,283.0" fill="none" stroke="#333" stroke-width="1.3" marker-end="url(#ar)"/>
<path d="M484.0,610.0 L484.0,657.0" fill="none" stroke="#333" stroke-width="1.3" marker-end="url(#ar)"/>
<text x="491.0" y="625.0" text-anchor="start" font-size="12" font-style="italic" fill="#222" stroke="white" stroke-width="4" paint-order="stroke" stroke-linejoin="round">[aucun conflit]</text>
<path d="M484.0,689.0 L484.0,720.0 L181.0,720.0 L181.0,736.0" fill="none" stroke="#333" stroke-width="1.3" marker-end="url(#ar)"/>
<path d="M166.0,751.0 L32.5,751.0 L32.5,283.0 L166.0,283.0" fill="none" stroke="#333" stroke-width="1.3" marker-end="url(#ar)"/>
<text x="158.0" y="745.0" text-anchor="end" font-size="12" font-style="italic" fill="#222" stroke="white" stroke-width="4" paint-order="stroke" stroke-linejoin="round">[autre séance]</text>
<path d="M181.0,766.0 L181.0,813.0" fill="none" stroke="#333" stroke-width="1.3" marker-end="url(#ar)"/>
<text x="188.0" y="781.0" text-anchor="start" font-size="12" font-style="italic" fill="#222" stroke="white" stroke-width="4" paint-order="stroke" stroke-linejoin="round">[emploi du temps complet]</text>
<path d="M181.0,845.0 L181.0,867.0 L484.0,867.0 L484.0,883.0" fill="none" stroke="#333" stroke-width="1.3" marker-end="url(#ar)"/>
<path d="M484.0,931.0 L484.0,972.0" fill="none" stroke="#333" stroke-width="1.3" marker-end="url(#ar)"/>
<circle cx="181.0" cy="127.0" r="11" fill="#111"/>
<rect x="40.7" y="181.0" width="280.6" height="48.0" rx="12" fill="#E6F3F5" stroke="#03909E" stroke-width="1.4"/>
<text x="181.0" y="201.5" text-anchor="middle">Choisir la session, la spécialité, le</text>
<text x="181.0" y="217.5" text-anchor="middle">semestre, le mode d&#x27;étude et le groupe</text>
<path d="M181.0,268.0 L196.0,283.0 L181.0,298.0 L166.0,283.0 z" fill="white" stroke="#333" stroke-width="1.4"/>
<rect x="37.3" y="337.0" width="287.3" height="48.0" rx="12" fill="#E6F3F5" stroke="#03909E" stroke-width="1.4"/>
<text x="181.0" y="357.5" text-anchor="middle">Saisir une séance (module, enseignant,</text>
<text x="181.0" y="373.5" text-anchor="middle">jour, heures de début et de fin, salle)</text>
<rect x="363.8" y="415.0" width="240.4" height="48.0" rx="12" fill="#E6F3F5" stroke="#03909E" stroke-width="1.4"/>
<text x="484.0" y="435.5" text-anchor="middle">Déduire l&#x27;année académique de la</text>
<text x="484.0" y="451.5" text-anchor="middle">session</text>
<rect x="357.1" y="493.0" width="253.8" height="48.0" rx="12" fill="#E6F3F5" stroke="#03909E" stroke-width="1.4"/>
<text x="484.0" y="513.5" text-anchor="middle">Vérifier les conflits d&#x27;horaire de</text>
<text x="484.0" y="529.5" text-anchor="middle">l&#x27;enseignant et du groupe</text>
<path d="M484.0,580.0 L499.0,595.0 L484.0,610.0 L469.0,595.0 z" fill="white" stroke="#333" stroke-width="1.4"/>
<rect x="619.0" y="571.0" width="153.3" height="48.0" rx="12" fill="#E6F3F5" stroke="#03909E" stroke-width="1.4"/>
<text x="695.6" y="591.5" text-anchor="middle">Afficher le conflit</text>
<text x="695.6" y="607.5" text-anchor="middle">détecté</text>
<rect x="400.6" y="657.0" width="166.7" height="32.0" rx="12" fill="#E6F3F5" stroke="#03909E" stroke-width="1.4"/>
<text x="484.0" y="677.5" text-anchor="middle">Enregistrer la séance</text>
<path d="M181.0,736.0 L196.0,751.0 L181.0,766.0 L166.0,751.0 z" fill="white" stroke="#333" stroke-width="1.4"/>
<rect x="77.5" y="813.0" width="206.9" height="32.0" rx="12" fill="#E6F3F5" stroke="#03909E" stroke-width="1.4"/>
<text x="181.0" y="833.5" text-anchor="middle">Finaliser l&#x27;emploi du temps</text>
<rect x="367.1" y="883.0" width="233.7" height="48.0" rx="12" fill="#E6F3F5" stroke="#03909E" stroke-width="1.4"/>
<text x="484.0" y="903.5" text-anchor="middle">Marquer l&#x27;emploi du temps comme</text>
<text x="484.0" y="919.5" text-anchor="middle">publié</text>
<circle cx="484.0" cy="985.0" r="13" fill="white" stroke="#111" stroke-width="1.6"/>
<circle cx="484.0" cy="985.0" r="8" fill="#111"/>
</svg>